<svg height="297mm" viewBox="0 0 744.09448819 1052.3622047" width="210mm" xmlns="http://www.w3.org/2000/svg" xmlns:xlink="http://www.w3.org/1999/xlink"><pattern id="a" patternTransform="matrix(7.2549956 6.2578894 -5.4369325 6.3032308 -329.43744 40.29091)" xlink:href="#c"/><pattern id="b" patternTransform="matrix(5.6789634 4.4147697 -4.2334817 5.4457625 68.711118 494.38487)" xlink:href="#c"/><pattern id="c" height="1" patternTransform="scale(10)" patternUnits="userSpaceOnUse" width="2"><path d="m0-.5h1v2h-1z"/></pattern><marker id="d" orient="auto" overflow="visible" refX="0.0" refY="0.0"><path d="m8.7185878 4.0337352-10.9258773-4.01772194 10.9258779-4.01772106c-1.7454984 2.3720609-1.7354408 5.6174519-.0000006 8.035443z" fill-rule="evenodd" stroke="#000" stroke-linejoin="round" stroke-width=".625" transform="matrix(-.3 0 0 -.3 .69 0)"/></marker><marker id="e" orient="auto" overflow="visible" refX="0.0" refY="0.0"><path d="m8.7185878 4.0337352-10.9258773-4.01772194 10.9258779-4.01772106c-1.7454984 2.3720609-1.7354408 5.6174519-.0000006 8.035443z" fill-rule="evenodd" stroke="#000" stroke-linejoin="round" stroke-width=".625" transform="matrix(-.3 0 0 -.3 .69 0)"/></marker><marker id="f" orient="auto" overflow="visible" refX="0.0" refY="0.0"><path d="m0 0 5-5-17.5 5 17.5 5z" fill="#f0f" fill-rule="evenodd" stroke="#f0f" stroke-width="1pt" transform="matrix(-.2 0 0 -.2 -1.2 0)"/></marker><marker id="g" orient="auto" overflow="visible" refX="0.0" refY="0.0"><path d="m0 0 5-5-17.5 5 17.5 5z" fill="#f0f" fill-rule="evenodd" stroke="#f0f" stroke-width="1pt" transform="matrix(-.2 0 0 -.2 -1.2 0)"/></marker><marker id="h" orient="auto" overflow="visible" refX="0.0" refY="0.0"><path d="m0 0 5-5-17.5 5 17.5 5z" fill="#f0f" fill-rule="evenodd" stroke="#f0f" stroke-width="1pt" transform="matrix(-.2 0 0 -.2 -1.2 0)"/></marker><marker id="i" orient="auto" overflow="visible" refX="0.0" refY="0.0"><path d="m0 0 5-5-17.5 5 17.5 5z" fill="#f0f" fill-rule="evenodd" stroke="#f0f" stroke-width="1pt" transform="matrix(-.2 0 0 -.2 -1.2 0)"/></marker><g><path d="m711.42857 352.3622-25.71428 311.42858 65.71428-8.57143-65.71428 60-74.28572 48.57143-197.14286 77.14285-94.28571-34.28571-108.57143 2.85714-128.571427-65.71428-5.714286-25.71429-34.285714 2.85714 25.714286-114.28571-131.428572 37.14286-242.857147-65.71429 62.85715-148.57143 154.285711-108.57143h60l112.458536-142.0192" fill="none" stroke="#800080" stroke-width="15"/><path d="m-525.71429 809.50506 274.28572-111.42857 542.85714 211.42857 117.76073 166.88464" fill="none" stroke="#00aad4" stroke-width="30"/><path d="m-29.712347 435.18744h61.771446v133.39874h-61.771446z" fill="#999" transform="matrix(.98744972 -.15793366 .15793366 .98744972 0 0)"/><path d="m298.72273 440.04464 157.1424-19.6428 68.7498 58.9284-42.5594 42.5594 32.738 63.8391 108.03539-39.2856 65.476 8.1845-18.0059 98.214 57.2915 19.6428-34.3749 29.4642-99.8509 29.4642-62.20219-3.2738-147.321 24.5535-176.7852 4.9107-81.845-29.52301-40.805536-18.64824-27.476394-.17645 35.543925-139.8958 26.190405-14.7321-6.51765-58.33589 140.74345-18.59841z" fill="#0f0" fill-rule="evenodd" opacity=".363" stroke="#000"/><g fill="url(#b)" fill-rule="evenodd"><path d="m197.33497 695.39958 140.774 10.05528h26.39512l-11.31219-42.31599 24.30027-8.3794 52.37128-15.92087-15.5019-62.84554-58.23686-72.48184-78.76641 14.24498-16.96829 17.59676 2.72331 13.40704-30.55505 20.27539-57.77952 21.35621 27.5424 22.24498-32.32088 57.06204 21.88811 12.29391z" opacity=".224"/><path d="m70.509091 675.5237 31.403209-10.66524 27.84813 2.96257 4.14759 5.92513 22.51551-4.7401 25.47807 15.99786 9.48022 18.36791-3.55508 37.32834-61.62139-29.62566-17.18289 13.6278-55.103744-17.77539 7.110161-18.36793z" opacity=".224"/></g><path id="j" d="m320.43557 801.66849 11.30949-19.79161 107.44017-32.98601 80.10889-12.25195 6.5972-17.90669-11.30949-7.53966-24.5039-5.65475-22.61898-11.30949 17.9067-1.88492 37.6983 8.48212" fill="none" stroke="#f0f" stroke-width="5"/><path d="m329.41203 626.75971 4.29902 34.9295 34.39212-7.52328-5.37377-37.61638z" fill="#0ff" fill-rule="evenodd"/><g transform="matrix(.6 0 0 .49999998 143.81903 285.85445)"><path d="m352.47916 716.84735h42.410591v52.777622h-42.410591z" fill="#00f"/><text font-family="sans-serif" font-size="50" letter-spacing="0" word-spacing="0" x="360.0188" y="761.14282"><tspan fill="#fff" x="360.0188" y="761.14282">P</tspan></text></g><path d="m563.58963 583.96079 40.52567-17.90669 71.62678-1.88492-1.88492 109.32508 50.89271-5.65474-31.1011 25.44635-19.24077 10.85611-37.61638-2.14951-36.00426 22.56983-30.63048 6.44852-26.86884-7.52327 3.22426-18.27082v-32.24261l21.49507-4.83639 11.28492-26.86885 1.07475-33.31736z" fill="#008000" fill-rule="evenodd"/><text font-family="sans-serif" font-size="25" letter-spacing="0" word-spacing="0" x="557.71387" y="695.60315"><tspan x="557.71387" y="695.60315">Beaumont</tspan></text><g transform="matrix(.66666667 0 0 .57142856 289.96278 263.86726)"><path d="m352.47916 716.84735h42.410591v52.777622h-42.410591z" fill="#00f"/><text font-family="sans-serif" font-size="50" letter-spacing="0" word-spacing="0" x="360.0188" y="761.14282"><tspan fill="#fff" x="360.0188" y="761.14282">P</tspan></text></g><path id="k" d="m488.15053 516.00217 175.29951-130.12987 41.79812-6.83969" fill="none" stroke="#f0f" stroke-width="5"/><text font-family="sans-serif" font-size="24.177908" letter-spacing="0" word-spacing="0" x="362.40561" y="462.06772"><tspan x="362.40561" y="462.06772">Halles</tspan></text><path d="m405.56319-738.97247a25.976154 25.976154 0 0 1 -12.98808 22.49601 25.976154 25.976154 0 0 1 -25.97615 0 25.976154 25.976154 0 0 1 -12.98808-22.49601" fill="#0ff" transform="scale(1 -1)"/><path d="m383.58023 768.68248-12.25196-99.9005" fill="none" stroke="#f0f" stroke-dasharray="5 5" stroke-width="5"/><g transform="matrix(.64444445 0 0 .53571427 121.76151 319.31224)"><path d="m352.47916 716.84735h42.410591v52.777622h-42.410591z" fill="#00f"/><text font-family="sans-serif" font-size="50" letter-spacing="0" word-spacing="0" x="360.0188" y="761.14282"><tspan fill="#fff" x="360.0188" y="761.14282">P</tspan></text></g><path d="m351.53667 436.93741 49.0078-9.42457-3.76983-29.21619" fill="none" stroke="#f0f" stroke-dasharray="5 5" stroke-width="5"/><path id="l" d="m120.67578 491.07646 128.13302-12.67091 53.72008-35.81339 18.21664-5.02584" fill="none" marker-end="url(#f)" stroke="#f0f" stroke-width="5"/><path d="m300.93106 454.98299 52.12556-12.8623 4.83639 30.86953-59.64884 10.28986z" fill="#b3b3b3" fill-rule="evenodd"/><g transform="matrix(.66666667 0 0 .60714284 90.663183 2.233097)"><path d="m352.47916 716.84735h42.410591v52.777622h-42.410591z" fill="#00f"/><text font-family="sans-serif" font-size="50" letter-spacing="0" word-spacing="0" x="360.0188" y="761.14282"><tspan fill="#fff" x="360.0188" y="761.14282">P</tspan></text></g><path d="m100.84296 252.21573 29.21618 37.6983 31.1011-4.71228 6.59721-25.44636-30.15865-69.74186-43.353043-4.71229z" fill="#008000" fill-rule="evenodd"/><path d="m498.14838 521.97121 42.99015 5.37377 31.16786 34.9295-54.81244 22.56983-28.48098-40.84064z" fill="#fc0" fill-rule="evenodd"/><path d="m460.93269 637.50724 93.64026-53.73768 20.42032 17.73343 4.8364 36.54163-11.8223 29.01835-103.85042 18.8082z" fill="#fc0" fill-rule="evenodd"/><path d="m623.35719 528.41974-2.68688 16.1213 34.9295 1.07476-.53738-20.9577-32.77999.53737z" fill="#fc0" fill-rule="evenodd"/><path d="m283.735 264.56769 47.28916 31.16785-7.52327 18.27082-50.51343-26.86885c-20.23001-20.5119 9.72105-28.96652 10.74754-22.56982z" fill="#0ff" fill-rule="evenodd"/><path d="m299.85631 443.51419 33.85474-145.09176-53.73769-38.69114-17.73344-8.59803-12.89704-6.44852-88.66719-1.07476" fill="none" stroke="#0f0" stroke-width="10"/><path id="m" d="m397.6589 402.67354-12.35967-136.49373 9.89142-18.07956" fill="none" marker-end="url(#g)" stroke="#f0f" stroke-width="5"/><g transform="matrix(.66666667 0 0 .60714284 -43.917854 -180.60255)"><path d="m352.47916 716.84735h42.410591v52.777622h-42.410591z" fill="#00f"/><text font-family="sans-serif" font-size="50" letter-spacing="0" word-spacing="0" x="360.0188" y="761.14282"><tspan fill="#fff" x="360.0188" y="761.14282">P</tspan></text></g><path id="n" d="m100.7172 316.8754 102.94864-22.75199" fill="none" stroke="#f0f" stroke-width="5"/><text font-family="sans-serif" font-size="25" letter-spacing="0" word-spacing="0" x="34.929501" y="518.20959"><tspan x="34.929501" y="518.20959">Verdun</tspan></text><g transform="matrix(.66666667 0 0 .60714284 -170.7388 22.525919)"><path d="m352.47916 716.84735h42.410591v52.777622h-42.410591z" fill="#00f"/><text font-family="sans-serif" font-size="50" letter-spacing="0" word-spacing="0" x="360.0188" y="761.14282"><tspan fill="#fff" x="360.0188" y="761.14282">P</tspan></text></g><path d="m127.09412 664.5622-2.96257 5.03636-26.386645-.71199-27.235813 9.59969" fill="none" stroke="#0f0" stroke-width="4"/><path d="m81.301404 688.35889v-16.22211h2.60719 2.607183l.07484 1.43456.07484 1.43457h1.247448 1.247448l.07484-1.43457.07484-1.43456h2.746158 2.74617l-.0757 5.67588-.0757 5.67588h2.49402 2.49401l.0606-3.61759c.0839-5.01101-.009-4.77984 1.880659-4.68963l1.55161.0741.12475 1.37003c.0966 1.06136.22581 1.38921.57334 1.45517.77944.14792 1.17308-.43362 1.17308-1.73305v-1.21689h1.614 1.614l.07 3.05624.07 3.05624h.74847c.73617 0 .74969-.0235.82329-1.43456l.0748-1.43457h1.60923 1.60923l.004 1.18508c.005 1.45474.24916 1.87758 1.02235 1.76825.52674-.0745.60992-.24265.72026-1.45638l.12474-1.3722h1.62168 1.62168l.0773 1.24745c.0915 1.47528.29139 1.73977 1.15184 1.52381l.64199-.16113v-2.98911-2.98912h1.60922 1.60923l.0748 1.43456c.0736 1.41101.0871 1.43456.82329 1.43456.73618 0 .7497-.0235.82329-1.43456l.0748-1.43456h1.60922 1.60923v4.11182c0 4.78665-.2468 4.44486 3.11946 4.32004l1.99507-.0739.067-5.67588.067-5.67588h2.61495 2.61496v1.19755c0 1.43247.30321 1.79633 1.49693 1.79633 1.19373 0 1.49693-.36386 1.49693-1.79633v-1.19755h2.61964 2.61964v16.22054 16.22055l-13.65953-.0661-13.65954-.0661-.12474-5.25112c-.13325-5.60905-.15726-5.71929-1.59232-7.30999-1.9351-2.14496-5.45511-2.17777-7.72342-.072-1.44209 1.33876-1.52656 1.71463-1.66178 7.39382l-.12475 5.23928-13.659529.0677-13.659531.0677v-16.22211zm18.834966-14.68505c-.136545-.13654.43027-1.28757.63404-1.28757.098 0 .64564-.92622 1.21689-2.05828.57124-1.13206 1.26121-2.3262 1.53327-2.65364.46769-.5629.52008-.57235.96104-.17328.25651.23214.82196 1.11753 1.25655 1.96754.43458.85001 1.11172 2.05069 1.50475 2.66817.39304.61749.72343 1.25308.73422 1.41243.0142.20992-1.05073.27938-3.86562.25214-2.13688-.0207-3.9257-.0781-3.97514-.12751zm20.33483-.0679c0-.45783 3.5975-6.687 3.86708-6.69595.13722-.005 1.10854 1.47835 2.15848 3.29535 1.60878 2.78409 1.8442 3.3303 1.49694 3.47321-.73046.30062-7.5225.23505-7.5225-.0726zm-38.92031-2.98749c0-.33115 5.691231-10.68637 6.152369-11.19426.374039-.41197.625825-.1638 1.487805 1.46642.257527.48706 1.562861 2.8347 2.900751 5.21699 1.33788 2.38229 2.43251 4.43276 2.43251 4.55659 0 .12809-2.7961.22515-6.486711.22515-4.499789 0-6.486724-.083-6.486724-.27089zm52.40507-.041c.0183-.46153 6.11848-11.25392 6.41739-11.35355.14066-.0469.58893.50972.99615 1.2369.40723.72719 1.82201 3.24759 3.14398 5.60089 1.32196 2.35331 2.40357 4.40224 2.40357 4.55318 0 .19256-1.93542.27445-6.48672.27445-5.02963 0-6.48394-.07-6.47437-.31187z"/><g transform="matrix(.64444445 0 0 .53571427 120.97783 453.11124)"><path d="m352.47916 716.84735h42.410591v52.777622h-42.410591z" fill="#00f"/><text font-family="sans-serif" font-size="50" letter-spacing="0" word-spacing="0" x="360.0188" y="761.14282"><tspan fill="#fff" x="360.0188" y="761.14282">P</tspan></text></g><text font-family="sans-serif" font-size="22.5" letter-spacing="0" word-spacing="0" x="381.48911" y="864.08435"><tspan x="381.48911" y="864.08435">Sernam</tspan></text><path d="m317.82709 798.31559.46709-2.77896-7.31193-5.28429c-4.02155-2.90637-8.55039-6.17547-10.06406-7.26466-2.25359-1.62162-2.66481-2.00856-2.27003-2.13601.6762-.21831 2.05791-1.33765 2.12202-1.71908.10715-.63751.55429-.47638 2.73925.98711 2.72386 1.82445 3.35078 1.9756 4.19282 1.01092.59955-.6869.67989-1.08207 2.50661-12.32832l1.88722-11.61868-.47838-.71787c-.26312-.39484-1.24419-1.26145-2.18017-1.92581-.93597-.66436-3.31291-2.34808-5.28207-3.7416-1.96917-1.39352-4.88926-3.46057-6.4891-4.59343s-4.11782-2.9109-5.5955-3.95119c-1.47769-1.04029-4.19749-2.95833-6.04399-4.26232-1.8465-1.304-4.16404-2.93384-5.15008-3.62188-.98606-.68805-3.149-2.223-4.80654-3.41101-1.65756-1.18801-3.26178-2.20171-3.56494-2.25267-.30316-.0509-.8072.0897-1.12008.31251-.55346.39419-.62343.72983-2.58568 12.4045-1.72835 10.28299-1.97701 12.08289-1.73864 12.58342.15299.32125 1.42679 1.39746 2.83066 2.39159l2.55248 1.80752-.36037.88081c-.40251.98388-.44509 2.30313-.0854 2.64397.14725.13951.0845.19958-.16703.15971-.22162-.0354-4.13214-2.77514-8.68994-6.08886-4.55779-3.31373-8.34037-6.03396-8.40574-6.04494-.0654-.011-.30436 1.27275-.53109 2.85275l-.41229 2.87272 1.67123 1.2295c.91919.67622 6.44666 4.65976 12.28328 8.8523 5.83663 4.19255 13.42651 9.6479 16.86643 12.12301 3.43991 2.47512 8.26658 5.93563 10.72593 7.69003s6.32044 4.53401 8.58017 6.17688c2.25973 1.64288 4.27047 2.95427 4.46829 2.91419.19782-.0401.29077.005.20657.10169-.12516.14267 8.23824 6.43675 8.64347 6.50485.0674.0113.33269-1.22993.58959-2.75836zm-32.52597-26.53762c-5.12808-3.69405-9.36249-6.77077-9.40976-6.83716-.0473-.0664.22796-.32678.61165-.57866.38368-.25187.91261-.78378 1.17538-1.18204.26278-.39826.55753-.7107.65501-.69431.20336.0342 2.74975 1.79814 8.81028 6.10313 2.33745 1.66037 5.17957 3.66082 6.31581 4.44545 1.79616 1.24031 2.02585 1.4784 1.75919 1.82347-.47473.61432-.69441 2.44455-.37413 3.11702.15845.33269.17386.5857.0343.56223-.13963-.0235-4.44958-3.06508-9.57766-6.75913zm17.59712-10.91828c.56038-3.55302 1.09107-6.58229 1.17921-6.73173.10506-.17802 1.16378.46568 3.07068 1.86689l2.91041 2.13861-.8461 5.03396c-.46536 2.76867-.93502 5.09732-1.0438 5.17476-.10874.0775-1.56831-.12093-3.2435-.44084l-3.04579-.58168 1.01891-6.46001zm-7.90228-5.71386c.65292-3.60846 1.23737-6.59701 1.29883-6.64119.0614-.0442 1.37544.79472 2.91993 1.86424l2.80817 1.94458-.89197 5.30687-.89197 5.30685-3.21502-.61022-3.21504-.61021 1.18703-6.56088zm-7.88364-5.76938c.7114-3.63308 1.32744-6.63186 1.36897-6.66396.0415-.032 1.3155.86521 2.83103 1.99402l2.75551 2.0524-.74542 5.17981-.74542 5.17982-3.37907-.5682-3.37908-.5682 1.29346-6.60557zm-8.8559 1.07965c-.10633-.67038 2.28678-13.13811 2.51443-13.09985.13636.0229 1.51687.93251 3.06778 2.02132l2.81986 1.97964-.40712 1.46723c-.22389.80699-.68989 3.14961-1.0355 5.20584l-.62838 3.73862-3.14528-.52865c-1.86564-.31358-3.16176-.6326-3.18579-.78415zm-6.94497-12.06073c.87556-5.20926 1.19335-6.685 1.43114-6.64503.16808.0282 1.44364.86235 2.83457 1.85355 1.39092.99119 2.6314 1.81939 2.7566 1.84043.13429.0226-.14159 2.2351-.67277 5.39539l-.90041 5.35712-3.28733-.55253-3.28732-.55253z"/><path d="m65.367411 100.7393 20.612891 76.77333" fill="none" stroke="#800080" stroke-width="15"/><path d="m-474.10303 450.33549 171.02246 122.68653" fill="none" stroke="#800080" stroke-width="15"/><path d="m-303.08056 656.85282 12.89704 124.67143-66.63474-8.59803-109.62488 55.8872-49.43867 6.44852" fill="none" stroke="#800080" stroke-width="15"/><path d="m38.75825 672.89458 36.851906 6.42749" fill="none" stroke="#0f0" stroke-width="10"/><path d="m-307.37958 585.91906-137.56849-98.87734-45.13965 34.39212v49.43867l126.82094 68.78424 148.31602 21.49508 135.41898 36.54163 113.186307 19.86712 24.773345-97.14138-122.93547 32.89457z" fill="#008000" fill-rule="evenodd"/><path d="m-305.50621 584.22334.75997 77.5165" fill="none" stroke="#800080" stroke-dasharray="15 15" stroke-width="15"/><path d="m704.5011 597.74136 24.71934 1.61213 1.07475 24.18196-29.01835-4.29902z" fill="#fc0" fill-rule="evenodd"/><g transform="matrix(.66666667 0 0 .60714284 238.50503 46.505467)"><path d="m352.47916 716.84735h42.410591v52.777622h-42.410591z" fill="#00f"/><text font-family="sans-serif" font-size="50" letter-spacing="0" word-spacing="0" x="360.0188" y="761.14282"><tspan fill="#fff" x="360.0188" y="761.14282">P</tspan></text></g><path d="m714.71126 362.37028 56.0173-19.01312" fill="none" stroke="#800080" stroke-width="15"/><path id="o" d="m69.027809 661.59963 25.181818-3.25882 32.588233 5.33262 24.88557-5.92514v-8.29518l11.25775-.59252 33.77326-29.62567 48.5861-18.36791 24.29305-11.85027 8.26541-9.61165 12.47256-8.75626-1.18503-11.25776 21.92299-14.22032s14.11614 6.6238 21.33049 5.33262c9.65248-1.72754 24.29304-16.59037 24.29304-16.59037l9.48022-24.29305 41.47594 5.33262" fill="none" stroke="#0f0" stroke-width="4"/><path d="m102.10161 606.33939 42.99015-7.52328 7.52328 18.27081-50.51343 12.89705z" fill="#0ff" fill-rule="evenodd"/><path d="m222.47403 530.03187 23.10721-12.89705 16.12131 27.40622-29.01836 15.04656z" fill="#0ff" fill-rule="evenodd"/><path d="m222.47403 699.84296 38.69114 5.37377-3.22426 49.43868-39.76589-4.29902z" fill="#0ff" fill-rule="evenodd"/><path d="m484.71396 519.28433-63.41048 50.51343-19.34557-137.56849" fill="none" stroke="#008080" stroke-width="5"/><circle cx="416.73578" cy="518.47827" fill="#0ff" r="19.07688"/><text font-family="sans-serif" font-size="25" letter-spacing="0" word-spacing="0" x="207.35472" y="529.94995"><tspan x="207.35472" y="529.94995">Tribunal</tspan></text><text font-family="sans-serif" font-size="25" letter-spacing="0" word-spacing="0" x="108.01276" y="612.25055"><tspan x="108.01276" y="612.25055">Gramont</tspan></text><text font-family="sans-serif" font-size="25" letter-spacing="0" word-spacing="0" x="366.5733" y="520.9516"><tspan x="366.5733" y="520.9516">Espagne</tspan></text><path d="m459.01927 693.6584-18.23917.75997-18.99914-124.63438" fill="none" stroke="#008080" stroke-width="5"/><path d="m55.847587 710.16351 25.808861 2.21803 33.979332 20.72536 59.49377 27.65203 125.69107 35.1935" fill="none" stroke="#0f0" stroke-width="5"/><path d="m37.238319 723.29706-71.436774 168.71238" fill="none" stroke="#008080" stroke-width="10"/><path d="m13.679382 825.89243 34.958422 15.19931 29.638662 31.91856 3.799828 38.75825 82.836256 73.71667" fill="none" stroke="#0f0" stroke-width="5"/><text font-family="sans-serif" font-size="25" letter-spacing="0" word-spacing="0" x="189.01176" y="728.25739"><tspan x="189.01176" y="728.25739">Mairie</tspan></text><text font-family="sans-serif" font-size="25" letter-spacing="0" word-spacing="0" x="270.01022" y="638.69153"><tspan x="270.01022" y="638.69153">Clémenceau</tspan></text><text font-family="sans-serif" font-size="20" letter-spacing="0" word-spacing="0" xml:space="preserve"><textPath xlink:href="#k"><tspan font-size="20">         Henri Faisan</tspan></textPath></text><text font-family="sans-serif" font-size="20" letter-spacing="0" word-spacing="0"><textPath xlink:href="#m"><tspan font-size="20">Cassin / Alliés</tspan></textPath></text><text font-family="sans-serif" font-size="25" letter-spacing="0" transform="matrix(.99846966 -.05530218 .05530218 .99846966 0 0)" word-spacing="0" x="220.12579" y="321.97018"><tspan x="220.12579" y="321.97018">Foirail</tspan></text><text font-family="sans-serif" font-size="20" letter-spacing="0" word-spacing="0" xml:space="preserve"><textPath xlink:href="#l"><tspan font-size="20">  Orléans / Nogué</tspan></textPath></text><path id="p" d="m85.469925 191.79737 35.193505 297.88783" fill="none" stroke="#f0f" stroke-width="5"/><text font-family="sans-serif" font-size="20" letter-spacing="0" word-spacing="0" xml:space="preserve"><textPath xlink:href="#p"><tspan font-size="20">                       Résistance</tspan></textPath></text><text font-family="sans-serif" font-size="20" letter-spacing="0" word-spacing="0"><textPath xlink:href="#n"><tspan font-size="20">Bourbaki</tspan></textPath></text><path id="q" d="m94.68727 173.36268 260.59948 47.7626 45.24878 18.43469" fill="none" stroke="#f0f" stroke-width="10"/><text font-family="sans-serif" font-size="20" letter-spacing="0" word-spacing="0" xml:space="preserve"><textPath xlink:href="#q"><tspan font-size="20">                  Alsace Lorraine</tspan></textPath></text><path d="m707.22174 356.87164-306.68621-120.66343" fill="none" stroke="#999" stroke-width="10"/><text fill="#000080" font-family="sans-serif" font-size="25" letter-spacing="0" transform="matrix(.94020973 .34059604 -.34059604 .94020973 0 0)" word-spacing="0" x="70.842934" y="753.67126"><tspan x="70.842934" y="753.67126">GAVE DE PAU</tspan></text><path d="m616.21391 765.58573 82.95187 47.40107" fill="none" stroke="#800080" stroke-width="15"/><text font-family="sans-serif" font-size="20" letter-spacing="0" word-spacing="0" xml:space="preserve"><textPath xlink:href="#j"><tspan font-size="20">  Napoléon Bonaparte</tspan></textPath></text><path d="m72.062878 599.87436 6.703524-40.22114" fill="none" marker-end="url(#i)" stroke="#f0f" stroke-width="5"/><path d="m58.655831 557.97734-51.1143667 14.24499.0000001 48.60055" fill="none" marker-end="url(#h)" stroke="#f0f" stroke-width="5"/><path d="m-488.75082 329.19641h90.062035v52.141201h-90.062035z" fill="#0ff"/><text font-family="sans-serif" font-size="25" letter-spacing="0" word-spacing="0" x="-386.32999" y="365.19226"><tspan x="-386.32999" y="365.19226">Place</tspan></text><path d="m-495.86099 89.821053h97.172195v66.361496h-97.172195z" fill="#0f0" fill-opacity=".360784"/><path d="m-491.12088 252.6145h92.432083v59.251339h-92.432083z" fill="#fc0"/><g transform="matrix(.66666667 0 0 .60714284 -661.94863 -40.135103)"><path d="m352.47916 716.84735h42.410591v52.777622h-42.410591z" fill="#00f"/><text font-family="sans-serif" font-size="50" letter-spacing="0" word-spacing="0" x="360.0188" y="761.14282"><tspan fill="#fff" x="360.0188" y="761.14282">P</tspan></text></g><path d="m-488.75082 177.14294h90.062035v59.251339h-90.062035z" fill="#008000"/><g transform="translate(0 -.000008)"><path d="m-505.59353 880.39974 87.88507.6942" fill="none" stroke="#800080" stroke-width="15"/><text font-family="sans-serif" font-size="25" letter-spacing="0" word-spacing="0" x="-405.29041" y="886.69666"><tspan x="-405.29041" y="886.69666">Axe de circulation principal</tspan></text></g><g transform="translate(0 -6.613831)"><path d="m-499.38118 932.30284h81.73196" fill="none" stroke="#008080" stroke-width="5"/><text font-family="sans-serif" font-size="25" letter-spacing="0" word-spacing="0" x="-405.29041" y="940.46863"><tspan x="-405.29041" y="940.46863">Accès transport en commun</tspan></text></g><g transform="translate(0 -1.352784)"><path d="m-498.28483 976.52054 80.63115-.1438" fill="none" stroke="#f0f" stroke-width="5"/><text font-family="sans-serif" font-size="25" letter-spacing="0" word-spacing="0" x="-405.29041" y="982.36572"><tspan x="-405.29041" y="982.36572">Voie d'accès ou de sortie de parking</tspan></text></g><g transform="translate(0 32)"><path d="m-497.72997 1033.4017h80.08075" fill="none" stroke="#0f0" stroke-width="10"/><text font-family="sans-serif" font-size="25" letter-spacing="0" word-spacing="0" x="-405.29041" y="1038.483"><tspan x="-405.29041" y="1038.483">Voie piétonne ou voie verte</tspan></text></g><g font-family="sans-serif" letter-spacing="0" word-spacing="0"><text font-size="25" x="-388.00586" xml:space="preserve" y="118.94305"><tspan x="-388.00586" y="118.94305">Zone piétonne </tspan><tspan x="-388.00586" y="150.19305">actuelle / étendue</tspan></text><text font-size="25" x="-386.32999" y="209.44055"><tspan x="-386.32999" y="209.44055">Parc</tspan></text><text font-size="25" x="-386.32999" y="276.41626"><tspan x="-386.32999" y="276.41626">Ecole/Collège/Lycée/</tspan><tspan x="-386.32999" y="307.66626">Médiathèque/Conservatoire</tspan></text><text font-size="25" x="-386.32999" y="420.37366"><tspan x="-386.32999" y="420.37366">Parking</tspan></text></g><g transform="translate(0 14.627502)"><path d="m-498.28483 1007.6984 80.63115-.1438" fill="none" stroke="#f0f" stroke-dasharray="5 5" stroke-width="5"/><text font-family="sans-serif" font-size="25" letter-spacing="0" word-spacing="0" x="-405.29041" y="1013.5436"><tspan x="-405.29041" y="1013.5436">Voie d'accès souterraine</tspan></text></g><text font-family="sans-serif" font-size="25" letter-spacing="0" word-spacing="0" x="384.81076" y="726.01642"><tspan x="384.81076" y="726.01642">Aragon</tspan></text><path d="m341.36964 432.28627-1.16583-15.83707 22.7337-1.75968 4.0804 15.25052z" fill="#fc0" fill-rule="evenodd"/><path d="m312.55179 417.20335 15.08292-.83794 4.18971 14.24498-24.30028 2.51383z" fill="#fc0" fill-rule="evenodd"/><text font-family="sans-serif" font-size="22.5" letter-spacing="0" word-spacing="0" x="508.30157" y="511.99002"><tspan x="508.30157" y="511.99002">Bosquet</tspan></text><path d="m-479.30194 107.16537h63.68346v33.517624h-63.68346z" fill="url(#a)" opacity=".224"/><text fill="#338000" font-family="sans-serif" font-size="20" letter-spacing=".30000001" word-spacing="0" xml:space="preserve"><textPath xlink:href="#o"> Hédas                Hédas        Hédas</textPath></text><g fill="none" stroke="#000" stroke-width="5" transform="translate(-14.812835 -3.258824)"><path d="m112.28402 735.62072v-20.11057" marker-end="url(#e)"/><path d="m126.94798 709.95643v20.11057" marker-end="url(#d)"/></g><g fill="none" stroke="#000" stroke-width="5" transform="translate(50.800668 20.838131)"><path d="m112.28402 735.62072v-20.11057" marker-end="url(#e)"/><path d="m126.94798 709.95643v20.11057" marker-end="url(#d)"/></g><path d="m56.979951 709.64456-80.861254 184.76587" fill="none" stroke="#0f0" stroke-width="10"/><path d="m468.67808 535.09802 47.40107 64.58396 77.61926-34.95829 29.03315-7.70267 63.39893 6.51765" fill="none" stroke="#008080" stroke-width="5"/></g></svg>